<svg width="800" height="800" viewBox="0 0 800 800" fill="none" xmlns="http://www.w3.org/2000/svg">
  <defs>
    <linearGradient id="bg" x1="0" y1="0" x2="800" y2="800" gradientUnits="userSpaceOnUse">
      <stop stop-color="#030B3D"/>
      <stop offset="1" stop-color="#06134F"/>
    </linearGradient>
    <linearGradient id="gold" x1="120" y1="160" x2="660" y2="460" gradientUnits="userSpaceOnUse">
      <stop stop-color="#FDE68A"/>
      <stop offset="1" stop-color="#D4AF37"/>
    </linearGradient>
  </defs>

  <rect width="800" height="800" rx="32" fill="url(#bg)"/>

  <circle cx="515" cy="290" r="170" stroke="url(#gold)" stroke-width="14"/>
  <path d="M410 360L460 320L510 360L560 300L620 260" stroke="url(#gold)" stroke-width="20" stroke-linecap="round" stroke-linejoin="round"/>
  <rect x="435" y="330" width="26" height="90" fill="#16A34A"/>
  <rect x="485" y="290" width="26" height="130" fill="#22C55E"/>
  <rect x="535" y="250" width="26" height="170" fill="#EF4444"/>

  <path d="M145 360C184 284 252 254 307 278C330 288 352 310 364 338C330 319 302 320 278 329C249 341 225 367 196 386C179 397 160 404 138 405C139 390 141 375 145 360Z" fill="url(#gold)"/>
  <path d="M180 300C190 275 215 256 241 253C232 268 220 282 205 293C197 299 189 304 180 300Z" fill="url(#gold)"/>

  <text x="98" y="570" fill="#F8D25D" font-size="94" font-weight="700" font-family="Inter, Arial, sans-serif">PRO</text>
  <text x="330" y="570" fill="#F8FAFC" font-size="94" font-weight="700" font-family="Inter, Arial, sans-serif">TRADING</text>
  <text x="170" y="645" fill="#F8D25D" font-size="56" letter-spacing="10" font-family="Inter, Arial, sans-serif">ACADEMY USA</text>
</svg>
